<svg shape-rendering="geometricPrecision" xmlns="http://www.w3.org/2000/svg"  class="qrcode" viewBox="0 0 29 29" preserveAspectRatio="xMidYMid" width="1024" height="1024">
<rect fill="#FFFFFF" width="100%" height="100%"/>
<path class="modules" fill="#000000" d="M13 2 m0 0h1v1h-1z M14 2 m0 0h1v1h-1z M15 2 m0 0h1v1h-1z M16 2 m0 0h1v1h-1z M17 2 m0 0h1v1h-1z M18 2 m0 0h1v1h-1z M11 3 m0 0h1v1h-1z M12 3 m0 0h1v1h-1z M13 3 m0 0h1v1h-1z M17 3 m0 0h1v1h-1z M18 3 m0 0h1v1h-1z M10 4 m0 0h1v1h-1z M11 4 m0 0h1v1h-1z M13 4 m0 0h1v1h-1z M18 4 m0 0h1v1h-1z M10 5 m0 0h1v1h-1z M11 5 m0 0h1v1h-1z M12 5 m0 0h1v1h-1z M16 5 m0 0h1v1h-1z M10 6 m0 0h1v1h-1z M11 6 m0 0h1v1h-1z M12 6 m0 0h1v1h-1z M15 6 m0 0h1v1h-1z M10 7 m0 0h1v1h-1z M16 7 m0 0h1v1h-1z M17 7 m0 0h1v1h-1z M18 7 m0 0h1v1h-1z M10 8 m0 0h1v1h-1z M12 8 m0 0h1v1h-1z M14 8 m0 0h1v1h-1z M16 8 m0 0h1v1h-1z M18 8 m0 0h1v1h-1z M10 9 m0 0h1v1h-1z M11 9 m0 0h1v1h-1z M13 9 m0 0h1v1h-1z M14 9 m0 0h1v1h-1z M16 9 m0 0h1v1h-1z M18 9 m0 0h1v1h-1z M2 10 m0 0h1v1h-1z M4 10 m0 0h1v1h-1z M5 10 m0 0h1v1h-1z M6 10 m0 0h1v1h-1z M7 10 m0 0h1v1h-1z M8 10 m0 0h1v1h-1z M12 10 m0 0h1v1h-1z M16 10 m0 0h1v1h-1z M17 10 m0 0h1v1h-1z M20 10 m0 0h1v1h-1z M21 10 m0 0h1v1h-1z M22 10 m0 0h1v1h-1z M23 10 m0 0h1v1h-1z M24 10 m0 0h1v1h-1z M3 11 m0 0h1v1h-1z M4 11 m0 0h1v1h-1z M5 11 m0 0h1v1h-1z M6 11 m0 0h1v1h-1z M9 11 m0 0h1v1h-1z M11 11 m0 0h1v1h-1z M14 11 m0 0h1v1h-1z M16 11 m0 0h1v1h-1z M18 11 m0 0h1v1h-1z M19 11 m0 0h1v1h-1z M21 11 m0 0h1v1h-1z M25 11 m0 0h1v1h-1z M2 12 m0 0h1v1h-1z M7 12 m0 0h1v1h-1z M8 12 m0 0h1v1h-1z M9 12 m0 0h1v1h-1z M10 12 m0 0h1v1h-1z M11 12 m0 0h1v1h-1z M12 12 m0 0h1v1h-1z M17 12 m0 0h1v1h-1z M20 12 m0 0h1v1h-1z M21 12 m0 0h1v1h-1z M23 12 m0 0h1v1h-1z M25 12 m0 0h1v1h-1z M26 12 m0 0h1v1h-1z M2 13 m0 0h1v1h-1z M4 13 m0 0h1v1h-1z M7 13 m0 0h1v1h-1z M9 13 m0 0h1v1h-1z M13 13 m0 0h1v1h-1z M26 13 m0 0h1v1h-1z M3 14 m0 0h1v1h-1z M5 14 m0 0h1v1h-1z M6 14 m0 0h1v1h-1z M8 14 m0 0h1v1h-1z M9 14 m0 0h1v1h-1z M10 14 m0 0h1v1h-1z M11 14 m0 0h1v1h-1z M12 14 m0 0h1v1h-1z M13 14 m0 0h1v1h-1z M14 14 m0 0h1v1h-1z M16 14 m0 0h1v1h-1z M17 14 m0 0h1v1h-1z M18 14 m0 0h1v1h-1z M19 14 m0 0h1v1h-1z M20 14 m0 0h1v1h-1z M21 14 m0 0h1v1h-1z M22 14 m0 0h1v1h-1z
M24 14 m0 0h1v1h-1z M25 14 m0 0h1v1h-1z M26 14 m0 0h1v1h-1z M2 15 m0 0h1v1h-1z M4 15 m0 0h1v1h-1z M7 15 m0 0h1v1h-1z M9 15 m0 0h1v1h-1z M10 15 m0 0h1v1h-1z M12 15 m0 0h1v1h-1z M15 15 m0 0h1v1h-1z M18 15 m0 0h1v1h-1z M21 15 m0 0h1v1h-1z M23 15 m0 0h1v1h-1z M25 15 m0 0h1v1h-1z M2 16 m0 0h1v1h-1z M5 16 m0 0h1v1h-1z M7 16 m0 0h1v1h-1z M8 16 m0 0h1v1h-1z M9 16 m0 0h1v1h-1z M13 16 m0 0h1v1h-1z M14 16 m0 0h1v1h-1z M16 16 m0 0h1v1h-1z M17 16 m0 0h1v1h-1z M18 16 m0 0h1v1h-1z M19 16 m0 0h1v1h-1z M21 16 m0 0h1v1h-1z M22 16 m0 0h1v1h-1z M23 16 m0 0h1v1h-1z M25 16 m0 0h1v1h-1z M26 16 m0 0h1v1h-1z M2 17 m0 0h1v1h-1z M4 17 m0 0h1v1h-1z M6 17 m0 0h1v1h-1z M7 17 m0 0h1v1h-1z M9 17 m0 0h1v1h-1z M10 17 m0 0h1v1h-1z M11 17 m0 0h1v1h-1z M13 17 m0 0h1v1h-1z M16 17 m0 0h1v1h-1z M18 17 m0 0h1v1h-1z M20 17 m0 0h1v1h-1z M21 17 m0 0h1v1h-1z M22 17 m0 0h1v1h-1z M26 17 m0 0h1v1h-1z M2 18 m0 0h1v1h-1z M7 18 m0 0h1v1h-1z M8 18 m0 0h1v1h-1z M9 18 m0 0h1v1h-1z M13 18 m0 0h1v1h-1z M16 18 m0 0h1v1h-1z M18 18 m0 0h1v1h-1z M19 18 m0 0h1v1h-1z M20 18 m0 0h1v1h-1z M21 18 m0 0h1v1h-1z M22 18 m0 0h1v1h-1z M24 18 m0 0h1v1h-1z M10 19 m0 0h1v1h-1z M11 19 m0 0h1v1h-1z M14 19 m0 0h1v1h-1z M15 19 m0 0h1v1h-1z M17 19 m0 0h1v1h-1z M18 19 m0 0h1v1h-1z M22 19 m0 0h1v1h-1z M23 19 m0 0h1v1h-1z M15 20 m0 0h1v1h-1z M16 20 m0 0h1v1h-1z M18 20 m0 0h1v1h-1z M20 20 m0 0h1v1h-1z M22 20 m0 0h1v1h-1z M24 20 m0 0h1v1h-1z M25 20 m0 0h1v1h-1z M26 20 m0 0h1v1h-1z M10 21 m0 0h1v1h-1z M11 21 m0 0h1v1h-1z M14 21 m0 0h1v1h-1z M16 21 m0 0h1v1h-1z M18 21 m0 0h1v1h-1z M22 21 m0 0h1v1h-1z M23 21 m0 0h1v1h-1z M25 21 m0 0h1v1h-1z M10 22 m0 0h1v1h-1z M11 22 m0 0h1v1h-1z M12 22 m0 0h1v1h-1z M14 22 m0 0h1v1h-1z M15 22 m0 0h1v1h-1z M17 22 m0 0h1v1h-1z M18 22 m0 0h1v1h-1z M19 22 m0 0h1v1h-1z M20 22 m0 0h1v1h-1z M21 22 m0 0h1v1h-1z M22 22 m0 0h1v1h-1z M24 22 m0 0h1v1h-1z M25 22 m0 0h1v1h-1z M26 22 m0 0h1v1h-1z M10 23 m0 0h1v1h-1z M11 23 m0 0h1v1h-1z M16 23 m0 0h1v1h-1z M17 23 m0 0h1v1h-1z M18 23 m0 0h1v1h-1z M19 23 m0 0h1v1h-1z
M20 23 m0 0h1v1h-1z M22 23 m0 0h1v1h-1z M23 23 m0 0h1v1h-1z M24 23 m0 0h1v1h-1z M25 23 m0 0h1v1h-1z M26 23 m0 0h1v1h-1z M10 24 m0 0h1v1h-1z M12 24 m0 0h1v1h-1z M13 24 m0 0h1v1h-1z M14 24 m0 0h1v1h-1z M15 24 m0 0h1v1h-1z M18 24 m0 0h1v1h-1z M19 24 m0 0h1v1h-1z M23 24 m0 0h1v1h-1z M24 24 m0 0h1v1h-1z M26 24 m0 0h1v1h-1z M13 25 m0 0h1v1h-1z M17 25 m0 0h1v1h-1z M18 25 m0 0h1v1h-1z M21 25 m0 0h1v1h-1z M22 25 m0 0h1v1h-1z M23 25 m0 0h1v1h-1z M26 25 m0 0h1v1h-1z M10 26 m0 0h1v1h-1z M13 26 m0 0h1v1h-1z M14 26 m0 0h1v1h-1z M17 26 m0 0h1v1h-1z M19 26 m0 0h1v1h-1z M20 26 m0 0h1v1h-1z M21 26 m0 0h1v1h-1z M22 26 m0 0h1v1h-1z M23 26 m0 0h1v1h-1z M24 26 m0 0h1v1h-1z M25 26 m0 0h1v1h-1z M26 26 m0 0h1v1h-1z"/>
<path class="outer" fill="#000000" d="M2 2 m0 0h7.02v7.02h-7.02zm1.17 1.17v4.68h4.68v-4.68z"/>
<path class="inner" fill="#000000" d="M2 2 m2 2h3v3h-3z"/>
<path class="outer" fill="#000000" d="M2 20 m0 0h7.02v7.02h-7.02zm1.17 1.17v4.68h4.68v-4.68z"/>
<path class="inner" fill="#000000" d="M2 20 m2 2h3v3h-3z"/>
<path class="outer" fill="#000000" d="M20 2 m0 0h7.02v7.02h-7.02zm1.17 1.17v4.68h4.68v-4.68z"/>
<path class="inner" fill="#000000" d="M20 2 m2 2h3v3h-3z"/>
</svg>
